<?xml version="1.0" encoding="UTF-8" standalone="no"?>
<!-- Created with Inkscape (http://www.inkscape.org/) -->

<svg
   xmlns:dc="http://purl.org/dc/elements/1.1/"
   xmlns:cc="http://creativecommons.org/ns#"
   xmlns:rdf="http://www.w3.org/1999/02/22-rdf-syntax-ns#"
   xmlns:svg="http://www.w3.org/2000/svg"
   xmlns="http://www.w3.org/2000/svg"
   xmlns:sodipodi="http://sodipodi.sourceforge.net/DTD/sodipodi-0.dtd"
   xmlns:inkscape="http://www.inkscape.org/namespaces/inkscape"
   width="23.813293mm"
   height="8.2731161mm"
   viewBox="0 0 23.813292 8.2731162"
   version="1.1"
   id="svg5014"
   inkscape:version="0.92+devel unknown"
   sodipodi:docname="tesla-x.svg">
  <defs
     id="defs5008" />
  <sodipodi:namedview
     id="base"
     pagecolor="#ffffff"
     bordercolor="#666666"
     borderopacity="1.0"
     inkscape:pageopacity="0.0"
     inkscape:pageshadow="2"
     inkscape:zoom="5.6"
     inkscape:cx="81.862794"
     inkscape:cy="17.890448"
     inkscape:document-units="mm"
     inkscape:current-layer="layer1"
     showgrid="false"
     fit-margin-left="-2.7755576e-17"
     fit-margin-top="0"
     fit-margin-right="0"
     fit-margin-bottom="0"
     inkscape:window-width="1366"
     inkscape:window-height="706"
     inkscape:window-x="0"
     inkscape:window-y="25"
     inkscape:window-maximized="1" />
  <metadata
     id="metadata5011">
    <rdf:RDF>
      <cc:Work
         rdf:about="">
        <dc:format>image/svg+xml</dc:format>
        <dc:type
           rdf:resource="http://purl.org/dc/dcmitype/StillImage" />
        <dc:title></dc:title>
      </cc:Work>
    </rdf:RDF>
  </metadata>
  <g
     inkscape:label="Layer 1"
     inkscape:groupmode="layer"
     id="layer1"
     transform="translate(257.59134,-2.5777335)">
    <path
       id="path1559"
       d="m -243.30802,2.5777335 v 0.00106 0.00106 c -0.21794,8.21e-5 -0.43628,0.00238 -0.65526,0.00775 h -5.3e-4 c -2.05805,0.084974 -3.45791,0.4710615 -4.61574,0.9544632 -0.34628,0.1353106 -0.74901,0.3029744 -1.31568,0.5529368 -0.45716,0.2016628 -0.99973,0.5057114 -1.66605,0.8717995 l -0.14314,0.048577 -0.32659,0.07284 -0.26097,-0.043392 -0.007,0.00265 c -0.88715,0.2239434 -2.03804,0.4677834 -3.04271,0.7405159 -0.50233,0.1363133 -0.96731,0.279982 -1.34617,0.4320116 -0.37885,0.1520825 -0.67111,0.3114411 -0.82785,0.4878123 l -0.008,0.00873 -5.2e-4,0.011377 c -0.001,0.029739 -0.0118,0.074851 -0.0114,0.1152525 2.3e-4,0.020108 0.002,0.043074 0.0207,0.061489 10e-4,0 0.004,-1.058e-4 0.005,0 -0.0118,0.013229 -0.0263,0.024871 -0.0258,0.050112 0.003,0.1502039 0.0359,0.3481123 0.0672,0.5224462 0.0156,0.08718 0.0307,0.1681692 0.0408,0.2336006 0.0101,0.065405 0.0147,0.117528 0.0124,0.1343555 -0.0109,0.080936 -0.046,0.1370806 -0.0842,0.1948127 -0.0382,0.057759 -0.0804,0.1182687 -0.0889,0.2010304 -0.0156,0.1527969 0.0341,0.3618177 0.0858,0.5369189 0.0517,0.1750748 0.10697,0.3146954 0.10697,0.3146954 l 0.006,0.015081 0.0155,0.00423 c 0.0105,0.00291 0.021,0.00503 0.0315,0.00767 0.0679,0.1153319 0.17059,0.2218267 0.24702,0.3012546 0.44766,0.1336146 1.26166,0.1982259 1.34307,0.4004998 l 0.0951,0.012435 0.0289,0.1033463 0.1819,-0.062018 0.0326,-0.1405466 h 0.14314 c -0.11714,-0.2612761 -0.17777,-0.5441156 -0.1788,-0.8304477 -1.1e-4,-1.1313583 0.91657,-1.9901694 2.04794,-1.9900635 1.13136,-1.059e-4 2.04856,0.8587052 2.04845,1.9900635 -6.9e-4,0.3262841 -0.0789,0.6476735 -0.22893,0.9374187 l 0.16434,0.00476 10.28412,0.028919 0.64079,-0.0372 0.25166,0.00423 c -0.16225,-0.2910681 -0.24735,-0.6186487 -0.24804,-0.951865 -1.7e-4,-1.0844212 0.79515,-2.0441973 2.04483,-2.0443296 1.23316,1.323e-4 1.98662,0.9599084 1.98645,2.0443296 -6.7e-4,0.3471333 -0.0935,0.6878373 -0.26872,0.9875308 l 0.52555,0.00503 1.38958,-0.3834342 c 0.74386,-0.3356239 0.83676,-0.7460191 0.93896,-1.0774362 0.0121,-0.0082 0.0249,-0.015875 0.0346,-0.024871 l 0.007,-0.00609 0.003,-0.00873 c 0.034,-0.1160198 0.0433,-0.2274887 0.0346,-0.3348831 l 0.0155,-0.621665 -5.3e-4,-0.00318 c -0.11942,-0.6633633 -0.13216,-1.4063398 -0.17674,-2.1285464 -0.004,-0.1742811 0.076,-0.3198284 0.12506,-0.4883415 l 0.008,-0.027913 -0.97617,-0.4097973 0.006,0.048059 c -0.97367,-0.4590309 -2.44618,-1.0624423 -3.78736,-1.3689065 v -5.291e-4 h -5.3e-4 c -1.53252,-0.3223737 -3.10072,-0.4674209 -4.69687,-0.4687041 h -0.0305 z m 0.0305,0.066146 v 0.00106 c 1.58965,0.00132 3.15094,0.1463728 4.6762,0.4666404 l 0.0568,0.2862871 c -1.61849,-0.4072176 -3.49811,-0.6108991 -5.44773,-0.5751592 0.01,-0.057129 0.0184,-0.113165 0.0284,-0.1705319 9e-4,-3.71e-5 0.002,3.7e-5 0.003,0 0.22863,-0.00561 0.45623,-0.00847 0.68368,-0.00826 z m -0.71314,0.00982 c -0.01,0.056851 -0.0182,0.1123633 -0.0279,0.1689815 -0.007,1.376e-4 -0.0141,-1.455e-4 -0.0212,0 v -5.292e-4 c -2.28219,0.044958 -5.11112,0.7564385 -7.28844,2.5853707 l -0.1478,0.1250421 0.19276,-0.0082 0.77359,-0.031538 c -0.1094,0.1428485 -0.18931,0.3777456 -0.24288,0.7054056 0,0 -5.3e-4,0 -5.3e-4,0 l -0.046,0.1493308 v 0.00265 c -0.004,0.9395354 -0.0698,1.8991791 0.061,2.8008526 l -0.12351,0.00265 -0.0713,-0.4630208 c -0.15362,-1.2494948 -1.21871,-2.2174465 -2.50941,-2.2174465 -1.39621,0 -2.52904,1.1323108 -2.52904,2.5285435 3.2e-4,0.057811 0.004,0.1159404 0.008,0.1736196 -0.46476,-0.027702 -0.92657,-7.94e-5 -1.37666,-0.1266031 -0.006,-0.014023 -0.0512,-0.1285346 -0.0992,-0.2909358 -0.0508,-0.1718998 -0.0961,-0.3808677 -0.0827,-0.5126302 0.007,-0.063976 0.0384,-0.1121834 0.077,-0.170524 0.0386,-0.058367 0.0822,-0.1261533 0.0951,-0.2222235 0.005,-0.036592 -0.002,-0.086439 -0.0119,-0.1534848 -0.0103,-0.067019 -0.0257,-0.1481402 -0.0413,-0.2351088 -0.0312,-0.1739106 -0.0638,-0.3710781 -0.0661,-0.5121275 1e-4,0.00582 0.005,-0.010848 0.0165,-0.022754 0.0113,-0.011906 0.0233,-0.020638 0.0233,-0.020638 l -0.0295,-0.057891 c -0.0152,0.0045 -0.0119,0 -0.009,0.00423 0.003,0.00265 -8.9e-4,-0.00318 -10e-4,-0.015611 -2.4e-4,-0.02196 0.007,-0.059002 0.01,-0.094033 0.14359,-0.1589616 0.42409,-0.317447 0.79582,-0.4666456 0.3748,-0.1504421 0.83847,-0.2934758 1.33945,-0.4294452 0.99977,-0.2713831 2.14653,-0.5149056 3.03496,-0.7389548 l 0.25993,0.043392 0.3421,-0.075962 0.44287,-0.1503627 h 0.002 c 1.93166,-0.9347676 3.47069,-2.1110813 7.25124,-2.273247 z m -0.0496,0.3007572 c -0.12373,0.7368064 -0.22456,1.4512105 -0.31678,2.1564679 -0.003,1.588e-4 -0.005,0 -0.008,0 l -0.47543,0.01905 0.57516,-2.1657654 c 0.0747,-0.00294 0.15124,-0.00886 0.22479,-0.010345 z m 0.0263,0 c 0.17983,-0.00339 0.35704,-5.03e-5 0.53537,5.292e-4 l -0.20309,2.1187383 c -0.21641,0.011906 -0.43273,0.022225 -0.64906,0.035639 0.0922,-0.7049267 0.19308,-1.4185265 0.31678,-2.1548937 z m 0.56172,5.292e-4 c 1.35923,0.00579 2.66786,0.1255924 3.86902,0.3565683 l -0.0971,1.5161869 c -1.32027,0.11303 -2.64822,0.1710002 -3.97547,0.2444221 z m -0.84077,0.010848 -0.57516,2.1662839 -4.26072,0.1731169 c 0.0238,-0.033073 0.0435,-0.069453 0.0506,-0.1105958 l 5.3e-4,-0.00265 -0.008,-0.2082535 c -0.01,-0.1179777 -0.0168,-0.2047346 -0.061,-0.2594081 -0.002,-0.00275 -0.005,-0.00455 -0.008,-0.00722 l 0.22944,-0.6423395 c 1.54309,-0.714256 3.18419,-1.0485887 4.63228,-1.1089772 z m 5.71954,0.151929 c 1.33222,0.3071892 2.79975,0.9089761 3.76515,1.3647764 l 0.005,0.00265 0.0863,0.00931 -0.002,-0.019632 0.81855,0.3431381 c -0.0473,0.1487223 -0.12321,0.294005 -0.1204,0.4759325 -0.0163,-0.013229 -0.0338,-0.0254 -0.0553,-0.033073 -0.0544,-0.019315 -0.12128,-0.026644 -0.17828,-0.040323 h -0.002 -0.002 v 0 c -0.2122,0.021696 -0.45344,0.1549135 -0.68471,0.3048794 -0.23127,0.1499658 -0.45218,0.3174735 -0.62012,0.4097866 -0.022,0.011642 -0.0356,0.038021 -0.0424,0.065643 -0.003,0.013758 -0.005,0.02839 -0.003,0.041857 0.002,0.013494 0.008,0.02667 0.0202,0.035137 h 0.002 0.002 c 0.1411,0.043656 0.24052,0.065564 0.29972,0.062018 0.40044,0.018785 0.80173,0.036301 1.21802,0.016933 0.002,0 0.003,0.00265 0.005,0.00265 0.005,0 0.0112,-5.29e-5 0.015,-0.00265 0.008,-0.00503 0.0102,-0.011906 0.0129,-0.01905 0.005,-0.014552 0.008,-0.034634 0.0114,-0.057891 0.006,-0.044926 0.0108,-0.099086 0.0176,-0.1328208 l 0.0196,-0.014552 c 0.0267,0.5115983 0.0569,1.0212652 0.1416,1.4944725 l -0.0155,0.623226 v 0.00265 c 0.008,0.096361 -0.002,0.1956593 -0.0305,0.2992172 -0.0436,0.037015 -0.1411,0.077708 -0.27699,0.1116278 -0.13991,0.034925 -0.31613,0.065458 -0.50953,0.09353 -0.37785,0.054901 -0.81712,0.1006739 -1.17874,0.1524529 -0.032,-0.1169194 -0.104,-0.3844131 -0.21239,-0.656299 -0.37004,-0.9358312 -1.28139,-1.5865475 -2.33371,-1.5875 -0.023,0 -0.0454,0.00265 -0.0682,0.00318 l 0.28422,-1.4014714 -0.0512,-0.256831 c 0.97059,-0.076211 1.56304,-0.2251287 1.87792,-0.5710158 l 0.0615,-0.068212 -0.0837,-0.037206 c -0.63546,-0.2884434 -1.35493,-0.5329925 -2.13475,-0.730705 l -0.0574,-0.2868057 z m -0.9834,0.1989561 c 0.35748,0.069313 0.70663,0.146767 1.04283,0.2356432 l 0.2248,1.1317155 c -0.45353,0.056481 -0.90852,0.1017799 -1.36426,0.1410706 z m 1.07125,0.242361 c 0.59812,0.1593718 1.16223,0.3472947 1.67794,0.5679255 v 0.1622636 c -0.13199,0.1365965 -0.2072,0.1646555 -0.31678,0.2056712 -0.28582,0.088403 -0.65713,0.149315 -1.13843,0.1865524 z m -10.47429,0.5322676 -0.21653,0.6066816 c -0.0364,-0.036359 -0.0799,-0.066614 -0.16123,-0.077515 -0.0343,-0.00447 -0.0344,-0.00212 -0.10438,-0.00413 v 0.00106 c -0.0743,-0.00238 -0.29359,0.021987 -0.42943,0.1136888 -0.13753,0.092824 -0.20796,0.1847135 -0.25942,0.27491 -0.0511,0.089535 -0.0845,0.1765564 -0.14831,0.2635514 -0.0156,0.011642 -0.0504,0.023019 -0.0951,0.032041 l 0.26561,-0.5849726 c 0.37342,-0.2331164 0.75721,-0.4424257 1.14877,-0.6252845 z m -0.48318,0.5524208 c 0.0706,0.00212 0.0692,-1.746e-4 0.10232,0.00413 0.0966,0.012965 0.13386,0.046027 0.17312,0.094567 0.0361,0.044585 0.0452,0.1271879 0.0548,0.2449539 l 0.008,0.2041261 c -0.0109,0.06051 -0.049,0.1157287 -0.0946,0.1550193 -0.0458,0.039529 -0.0993,0.06223 -0.1354,0.060457 h -5.2e-4 l -0.51367,0.028945 -0.59893,0.024871 h -0.0336 l -0.004,-0.0037 c -9.8e-4,0 -0.002,0.00291 -0.003,0.00423 l -0.36328,0.013494 -0.0646,-0.072866 c 0.10871,-0.022489 0.24401,-0.036274 0.36639,-0.049609 0.0652,-0.00714 0.12584,-0.014817 0.1757,-0.024342 0.0499,-0.00953 0.089,-0.020373 0.11265,-0.038761 l 0.001,-0.00265 h 0.002 c 0.0672,-0.090964 0.10071,-0.1802342 0.15089,-0.2682081 0.0502,-0.087974 0.11632,-0.1754717 0.25063,-0.2661444 0.12639,-0.085317 0.34771,-0.1116674 0.41393,-0.1095534 z m -0.7059,0.097152 -0.25631,0.5658485 c -0.0439,0.00741 -0.0919,0.014023 -0.14676,0.020108 -0.126,0.013758 -0.26886,0.026591 -0.38189,0.05117 l -0.12247,0.00503 c 0.29212,-0.2335212 0.59618,-0.446061 0.90743,-0.6423395 z m 11.88558,0.073379 0.0507,0.2542382 -0.28526,1.4030324 c -1.22394,0.046355 -2.22528,0.9657821 -2.3921,2.1554017 -0.006,0.06641 -0.0348,0.1880394 -0.0408,0.3266016 l -3.84266,0.077523 c 0.11009,-1.0727267 0.22,-2.1456386 0.35346,-3.241675 l 0.83768,-0.036169 h 0.001 c 0.11184,-0.01561 0.17193,-0.042307 0.21136,-0.073898 0.0394,-0.031591 0.0567,-0.066622 0.0817,-0.096123 l 0.0191,-0.022754 v 0 l -1.12655,0.044953 c 0.0148,-0.1195917 0.032,-0.2414852 0.0475,-0.3617384 2.02731,-0.1259152 4.06555,-0.176821 6.0849,-0.428916 z m -6.11125,0.429948 c -0.0155,0.1202531 -0.0327,0.2421466 -0.0475,0.3617383 l -0.94051,0.03773 h -0.002 c -0.13371,0.036274 -0.19395,0.093266 -0.23512,0.1762125 l -0.01,0.020108 h 0.0222 l 1.1405,-0.049609 c -0.1335,1.0960894 -0.24339,2.1686044 -0.35347,3.2411458 l -5.91178,0.1188773 c -0.13086,-0.8985779 -0.0646,-1.8576131 -0.0605,-2.7993181 l 0.045,-0.1462352 c 0.0554,-0.3397514 0.13986,-0.5792523 0.25063,-0.7131579 l 6.10196,-0.2475177 z m 10.11721,0.00265 v 0.00265 c 0.0584,0.013758 0.12336,0.021431 0.17208,0.038762 0.0249,0.009 0.0453,0.019844 0.0589,0.034634 0.003,0.00291 0.004,0.00688 0.007,0.010319 0.0114,0.1893094 0.0216,0.3798623 0.0315,0.570521 l -0.0419,0.03048 -0.001,0.00476 c -0.008,0.037121 -0.0121,0.094827 -0.0181,0.140044 -0.003,0.022754 -0.007,0.042624 -0.0103,0.052705 h -5.3e-4 -0.006 c -0.4164,0.019315 -0.81815,-1.059e-4 -1.22008,-0.017462 h -5.3e-4 -5.3e-4 c -0.0499,0.00291 -0.14945,-0.017727 -0.2868,-0.059955 -0.004,-0.00344 -0.008,-0.00873 -0.009,-0.016404 -0.001,-0.00873 -6.6e-4,-0.019844 0.002,-0.031009 0.005,-0.022225 0.0204,-0.043762 0.0294,-0.048551 0.17116,-0.094086 0.39201,-0.2615935 0.62219,-0.410845 0.22982,-0.1490133 0.46874,-0.2786062 0.67179,-0.29972 z m -9.07076,0.3421062 c -0.0177,0.024342 -0.0317,0.048789 -0.0579,0.069744 -0.0347,0.027861 -0.0904,0.053102 -0.19947,0.068236 l -0.83096,0.036169 c 0.005,-0.043286 0.0117,-0.087895 0.0171,-0.1312598 l 1.07126,-0.042889 z m -1.09761,0.043921 c -0.005,0.043365 -0.0118,0.087974 -0.017,0.1312598 l -1.10485,0.048048 c 0.0374,-0.061913 0.0782,-0.1110192 0.19017,-0.1415786 l 0.93173,-0.03773 z m -11.37037,0.535887 c -0.10707,0.017992 -0.35796,0.056462 -0.62942,0.1322917 -0.27145,0.075856 -0.56362,0.1890448 -0.75602,0.3591454 l -0.005,0.00423 5.2e-4,0.00661 c 0.008,0.080645 0.0247,0.153035 0.0718,0.2418557 l 10e-4,0.00265 0.002,0.00265 c 0.0344,0.031565 0.0655,0.035666 0.091,0.035666 l 0.89504,-0.049609 h 10e-4 c 0.27486,-0.041619 0.32447,-0.1048279 0.41962,-0.1596761 h 5.1e-4 l 0.70125,-0.5395118 -0.79117,-0.033602 h -0.002 v -0.00265 z m 4.78938,0.020637 -0.85473,0.036698 0.005,0.016404 c 0.0366,0.1142736 0.15638,0.1960563 0.26097,0.2475177 l 0.006,0.00317 0.006,-0.00265 c 0.0858,-0.040508 0.20918,-0.081518 0.31987,-0.1261004 0.10582,-0.042651 0.19454,-0.088847 0.2341,-0.1477963 0.002,-0.00265 0.009,-0.00397 0.0108,-0.00661 l 0.0119,-0.020108 v 0 z m -4.78524,0.00582 v 0 l 0.71468,0.030506 -0.6413,0.49403 c 0,0 -5.2e-4,0 -5.2e-4,0 -0.099,0.057124 -0.13858,0.1149879 -0.40979,0.1560513 l -0.89194,0.049609 c -0.023,0 -0.0425,-0.00265 -0.0713,-0.028416 -0.0427,-0.081412 -0.0578,-0.146394 -0.0656,-0.2206625 0.18689,-0.162851 0.47214,-0.2756694 0.73949,-0.3503612 0.2694,-0.075274 0.51852,-0.1131623 0.62632,-0.1312598 z m 4.71547,0.023812 c -0.0398,0.041566 -0.10398,0.083503 -0.19688,0.120941 -0.10687,0.043074 -0.22568,0.082788 -0.31368,0.1235075 -0.0934,-0.04662 -0.18728,-0.1221846 -0.22686,-0.2124075 z m 12.59872,0.7699904 a 1.9019086,1.9019086 0 0 0 -1.90221,1.9016927 1.9019086,1.9019086 0 0 0 1.90221,1.9016933 1.9019086,1.9019086 0 0 0 1.90169,-1.9016933 1.9019086,1.9019086 0 0 0 -1.90169,-1.9016927 z m -14.91434,0.058394 a 1.9019086,1.9019086 0 0 0 -1.90221,1.9016927 1.9019086,1.9019086 0 0 0 1.90221,1.9016923 1.9019086,1.9019086 0 0 0 1.90221,-1.9016923 1.9019086,1.9019086 0 0 0 -1.90221,-1.9016927 z m 15.03113,0.3064404 a 1.5426892,1.5426892 0 0 1 0.54105,0.1436688 l -0.0899,0.1906852 c -0.14392,-0.068183 -0.30002,-0.1135592 -0.46664,-0.1261004 l 0.0155,-0.2082536 z m -0.37414,0.01614 0.0351,0.2072217 c -0.18278,0.030745 -0.35275,0.098848 -0.5023,0.195871 l -0.1142,-0.1762125 a 1.5426892,1.5426892 0 0 1 0.58136,-0.2268802 z m -14.5402,0.042386 a 1.5426892,1.5426892 0 0 1 0.54157,0.1441714 l -0.0899,0.1906852 c -0.14399,-0.068263 -0.30047,-0.1139825 -0.46715,-0.1266031 l 0.0155,-0.2082535 z m -0.37362,0.015875 0.0351,0.2067189 c -0.18306,0.030639 -0.35259,0.099219 -0.5023,0.1963738 l -0.11472,-0.1762125 A 1.5426892,1.5426892 0 0 1 -253.64899,7.4283 Z m 15.27038,0.1602052 c 0.16317,0.012435 0.31641,0.056832 0.45734,0.1235075 l -0.33848,0.71882 a 0.47517912,0.47517912 0 0 0 -0.1788,-0.041328 z m -0.31677,0.014552 0.13591,0.7978774 a 0.47517912,0.47517912 0 0 0 -0.18035,0.083714 l -0.44804,-0.6893454 c 0.14668,-0.095224 0.31308,-0.1621631 0.49248,-0.192246 z m -14.59756,0.043921 c 0.16337,0.012435 0.31674,0.057176 0.45785,0.1240367 l -0.33899,0.7182908 a 0.47517912,0.47517912 0 0 0 -0.1788,-0.041328 z m -0.31626,0.014552 0.13591,0.7978775 a 0.47517912,0.47517912 0 0 0 -0.18035,0.083714 l -0.44855,-0.6893454 c 0.14681,-0.095303 0.3134,-0.1621896 0.49299,-0.1922461 z m 16.10599,0.035137 a 1.5426892,1.5426892 0 0 1 0.35967,0.4237567 l -0.18397,0.1064419 c -0.081,-0.140044 -0.18604,-0.2624667 -0.31057,-0.3643048 z m -14.91381,0.058394 a 1.5426892,1.5426892 0 0 1 0.35915,0.4237566 l -0.18397,0.1064419 c -0.0811,-0.1400969 -0.18592,-0.2624402 -0.31058,-0.3643048 z m 12.8142,0.082682 0.15348,0.1436687 c -0.11319,0.1207294 -0.20441,0.2611967 -0.26665,0.417539 l -0.1943,-0.076994 a 1.5426892,1.5426892 0 0 1 0.30747,-0.4842137 z m 1.9482,0.044953 c 0.12211,0.099854 0.22494,0.2197629 0.30438,0.3571081 l -0.68678,0.396875 a 0.47517912,0.47517912 0 0 0 -0.11679,-0.1411023 z m -16.86202,0.013494 0.15348,0.1436688 c -0.11312,0.1207293 -0.20445,0.2611966 -0.26665,0.4175389 l -0.1943,-0.076994 a 1.5426892,1.5426892 0 0 1 0.30747,-0.4842137 z m -2.04122,0.021696 -0.21497,0.012435 c -0.0446,0.016933 -0.0931,0.025929 -0.0951,0.1281641 l -0.005,0.1870605 -0.38809,0.060986 0.38654,0.00767 -0.005,0.2144448 -0.26562,0.041354 0.26407,0.00503 -0.008,0.31369 c 0.0441,0.016404 0.0717,0.016404 0.0827,0 0.14818,-0.1707356 0.17827,-0.4936596 0.24804,-0.9709944 z m 3.98891,0.023813 c 0.12202,0.099774 0.22495,0.2193925 0.30437,0.3565789 l -0.68678,0.396875 a 0.47517912,0.47517912 0 0 0 -0.11679,-0.1410758 z m 13.13925,0.057864 0.60564,0.5663936 a 0.47517912,0.47517912 0 0 0 -0.0827,0.1539875 l -0.78393,-0.3110971 c 0.0609,-0.1531938 0.15016,-0.2909623 0.26097,-0.409284 z m -14.91434,0.05842 0.60617,0.5663671 a 0.47517912,0.47517912 0 0 0 -0.0827,0.1539875 L -254.605,8.4672393 c 0.0609,-0.1531937 0.15015,-0.2909623 0.26096,-0.4092575 z m 17.34778,0.4056592 a 1.5426892,1.5426892 0 0 1 0.0615,0.427355 1.5426892,1.5426892 0 0 1 -0.007,0.1415785 l -0.20877,-0.019579 c 0.004,-0.04019 0.006,-0.080804 0.006,-0.1219465 0,-0.1284817 -0.0235,-0.2503752 -0.0574,-0.3679296 l 0.20567,-0.059425 z m -1.46709,0.01614 a 0.07437586,0.07437586 0 0 1 0.005,0 0.07437586,0.07437586 0 0 1 0.0744,0.074427 0.07437586,0.07437586 0 0 1 -0.0744,0.074401 0.07437586,0.07437586 0 0 1 -0.0744,-0.074401 0.07437586,0.07437586 0 0 1 0.0693,-0.074427 z m -13.44725,0.042386 a 1.5426892,1.5426892 0 0 1 0.0615,0.427355 1.5426892,1.5426892 0 0 1 -0.007,0.1415786 l -0.20826,-0.019579 c 0.004,-0.04019 0.006,-0.080804 0.006,-0.1219465 0,-0.1286933 -0.0238,-0.2507191 -0.0579,-0.3684587 l 0.20568,-0.058896 z m 14.68335,0.0082 c 0.0332,0.115279 0.0563,0.2347119 0.0563,0.3607065 0,0.040269 -0.003,0.080036 -0.006,0.11938 l -0.8077,-0.075459 a 0.47517912,0.47517912 0 0 0 0.006,-0.071305 0.47517912,0.47517912 0 0 0 -0.0145,-0.1131888 l 0.76585,-0.2201333 z m -16.15044,0.00767 a 0.07437586,0.07437586 0 0 1 0.005,0 0.07437586,0.07437586 0 0 1 0.0744,0.074427 0.07437586,0.07437586 0 0 1 -0.0744,0.074401 0.07437586,0.07437586 0 0 1 -0.0739,-0.074401 0.07437586,0.07437586 0 0 1 0.0687,-0.074427 z m 1.2361,0.050641 c 0.0333,0.1153054 0.0568,0.2346854 0.0568,0.3607064 0,0.040428 -0.003,0.08038 -0.006,0.1198827 l -0.80822,-0.075962 a 0.47517912,0.47517912 0 0 0 0.006,-0.071305 0.47517912,0.47517912 0 0 0 -0.0145,-0.1131888 l 0.76584,-0.2201333 z m 13.96711,0.076994 a 0.07437586,0.07437586 0 0 1 5.3e-4,0 0.07437586,0.07437586 0 0 1 0.005,0 0.07437586,0.07437586 0 0 1 0.0744,0.074427 0.07437586,0.07437586 0 0 1 -0.0744,0.074401 0.07437586,0.07437586 0 0 1 -0.0744,-0.074401 0.07437586,0.07437586 0 0 1 0.0687,-0.074427 z m -1.82987,0.018521 0.20568,0.027914 c -0.008,0.058632 -0.0134,0.1180042 -0.0134,0.1788054 0,0.1057275 0.015,0.2072746 0.0382,0.3059113 l -0.2036,0.048075 a 1.5426892,1.5426892 0 0 1 -0.0429,-0.3539861 1.5426892,1.5426892 0 0 1 0.016,-0.2067189 z m 1.26401,0.026882 a 0.07437586,0.07437586 0 0 1 0.005,0 0.07437586,0.07437586 0 0 1 0.0744,0.074427 0.07437586,0.07437586 0 0 1 -0.0744,0.073872 0.07437586,0.07437586 0 0 1 -0.0744,-0.073872 0.07437586,0.07437586 0 0 1 0.0692,-0.074427 z m -1.03198,0.00476 0.84543,0.1136915 a 0.47517912,0.47517912 0 0 0 -0.002,0.034105 0.47517912,0.47517912 0 0 0 0.0176,0.129196 l -0.83613,0.1979083 c -0.0228,-0.096652 -0.0377,-0.1961356 -0.0377,-0.29972 0,-0.059531 0.005,-0.117766 0.0129,-0.1751806 z m -13.32373,0.00714 a 0.07437586,0.07437586 0 0 1 5.3e-4,0 0.07437586,0.07437586 0 0 1 5.3e-4,0 0.07437586,0.07437586 0 0 1 0.007,0 0.07437586,0.07437586 0 0 1 0.005,0 v 0 a 0.07437586,0.07437586 0 0 1 0.0481,0.017992 0.07437586,0.07437586 0 0 1 0.005,0.00476 0.07437586,0.07437586 0 0 1 0.005,0.00635 0.07437586,0.07437586 0 0 1 0.004,0.00503 0.07437586,0.07437586 0 0 1 0.004,0.00582 0.07437586,0.07437586 0 0 1 0.003,0.00609 0.07437586,0.07437586 0 0 1 0.003,0.00661 0.07437586,0.07437586 0 0 1 0.002,0.00609 0.07437586,0.07437586 0 0 1 0.001,0.012435 0.07437586,0.07437586 0 0 1 -5.3e-4,0.00661 0.07437586,0.07437586 0 0 1 -10e-4,0.00661 0.07437586,0.07437586 0 0 1 -5.3e-4,0.00265 0.07437586,0.07437586 0 0 1 -0.002,0.00556 0.07437586,0.07437586 0 0 1 -0.002,0.00609 0.07437586,0.07437586 0 0 1 -5.3e-4,0 0.07437586,0.07437586 0 0 1 -0.003,0.00582 0.07437586,0.07437586 0 0 1 -0.004,0.00609 0.07437586,0.07437586 0 0 1 -0.005,0.00503 0.07437586,0.07437586 0 0 1 -0.005,0.00476 0.07437586,0.07437586 0 0 1 -0.005,0.00529 0.07437586,0.07437586 0 0 1 -5.3e-4,0 0.07437586,0.07437586 0 0 1 -0.046,0.016139 0.07437586,0.07437586 0 0 1 -0.0584,-0.027914 0.07437586,0.07437586 0 0 1 -0.004,-0.00556 0.07437586,0.07437586 0 0 1 -0.007,-0.012965 0.07437586,0.07437586 0 0 1 -0.003,-0.00609 0.07437586,0.07437586 0 0 1 -0.002,-0.00661 0.07437586,0.07437586 0 0 1 -10e-4,-0.00661 0.07437586,0.07437586 0 0 1 0,-0.00556 0.07437586,0.07437586 0 0 1 0.002,-0.012965 0.07437586,0.07437586 0 0 1 0.002,-0.00661 0.07437586,0.07437586 0 0 1 0.004,-0.010319 0.07437586,0.07437586 0 0 1 0.002,-0.0037 0.07437586,0.07437586 0 0 1 0.004,-0.00556 0.07437586,0.07437586 0 0 1 0.004,-0.00476 0.07437586,0.07437586 0 0 1 10e-4,-0.00265 0.07437586,0.07437586 0 0 1 0.005,-0.00582 0.07437586,0.07437586 0 0 1 0.0176,-0.012435 0.07437586,0.07437586 0 0 1 5.3e-4,0 0.07437586,0.07437586 0 0 1 0.006,-0.00265 0.07437586,0.07437586 0 0 1 5.3e-4,0 0.07437586,0.07437586 0 0 1 0.014,-0.0037 z m -1.82263,0.019579 0.20619,0.027914 c -0.008,0.058632 -0.0134,0.1180041 -0.0134,0.1788054 0,0.1057275 0.015,0.2072746 0.0382,0.3059112 l -0.20412,0.048075 a 1.5426892,1.5426892 0 0 1 -0.0429,-0.353986 1.5426892,1.5426892 0 0 1 0.016,-0.206719 z m 1.26401,0.026882 a 0.07437586,0.07437586 0 0 1 5.2e-4,0 0.07437586,0.07437586 0 0 1 0.005,0 0.07437586,0.07437586 0 0 1 0.0744,0.074427 0.07437586,0.07437586 0 0 1 -0.0744,0.073898 0.07437586,0.07437586 0 0 1 -0.0744,-0.073898 0.07437586,0.07437586 0 0 1 0.0687,-0.074427 z m -1.03198,0.00476 0.84542,0.1141942 a 0.47517912,0.47517912 0 0 0 -0.002,0.033602 0.47517912,0.47517912 0 0 0 0.0181,0.129196 l -0.83665,0.1979083 c -0.0228,-0.096652 -0.0377,-0.1961356 -0.0377,-0.29972 0,-0.059531 0.005,-0.117766 0.0129,-0.1751806 z m 16.43775,0.2299494 a 0.07437586,0.07437586 0 0 1 5.3e-4,0 0.07437586,0.07437586 0 0 1 0.005,0 0.07437586,0.07437586 0 0 1 0.0744,0.074427 0.07437586,0.07437586 0 0 1 -0.0744,0.074401 0.07437586,0.07437586 0 0 1 -0.0744,-0.074401 0.07437586,0.07437586 0 0 1 0.0687,-0.074427 z m -0.35915,0.028945 a 0.07437586,0.07437586 0 0 1 0.005,0 0.07437586,0.07437586 0 0 1 0.0744,0.074401 0.07437586,0.07437586 0 0 1 -0.0744,0.074427 0.07437586,0.07437586 0 0 1 -0.0744,-0.074427 0.07437586,0.07437586 0 0 1 0.0692,-0.074401 z m 0.59118,0.016404 0.76895,0.26924 c -0.058,0.1665552 -0.14734,0.3167327 -0.26304,0.4449233 l -0.61391,-0.5570802 a 0.47517912,0.47517912 0 0 0 0.108,-0.1570831 z m -15.14636,0.012965 a 0.07437586,0.07437586 0 0 1 5.3e-4,0 0.07437586,0.07437586 0 0 1 0.005,0 0.07437586,0.07437586 0 0 1 0.0744,0.074427 0.07437586,0.07437586 0 0 1 -0.0744,0.074401 0.07437586,0.07437586 0 0 1 -0.0744,-0.074401 0.07437586,0.07437586 0 0 1 0.0687,-0.074427 z m -0.35915,0.028945 a 0.07437586,0.07437586 0 0 1 5.3e-4,0 0.07437586,0.07437586 0 0 1 0.005,0 0.07437586,0.07437586 0 0 1 0.0744,0.074427 0.07437586,0.07437586 0 0 1 -0.0744,0.074401 0.07437586,0.07437586 0 0 1 -0.0744,-0.074401 0.07437586,0.07437586 0 0 1 0.0687,-0.074427 z m 14.65285,0.00265 a 0.47517912,0.47517912 0 0 0 0.11369,0.137451 l -0.54777,0.666115 c -0.13724,-0.1128183 -0.24968,-0.2515129 -0.33177,-0.4108185 z m -14.06167,0.014552 0.76894,0.26924 c -0.058,0.1665816 -0.14732,0.3167327 -0.26303,0.4449233 l -0.61392,-0.5570537 a 0.47517912,0.47517912 0 0 0 0.10801,-0.1571096 z m -0.85215,0.043921 a 0.47517912,0.47517912 0 0 0 0.11369,0.1374511 l -0.54829,0.6656122 c -0.137,-0.112686 -0.24971,-0.250825 -0.33176,-0.4098131 z m 15.56649,0.1230048 0.46974,0.7001933 c -0.14102,0.095329 -0.30146,0.1635397 -0.47439,0.1979357 l -0.16536,-0.8392327 a 0.47517912,0.47517912 0 0 0 0.17001,-0.058896 z m -0.44803,0.014023 a 0.47517912,0.47517912 0 0 0 0.16846,0.048048 l -0.0419,0.858864 c -0.17868,-0.0082 -0.34628,-0.05424 -0.49919,-0.127106 z m 1.44125,0.038761 0.20154,0.070273 a 1.5426892,1.5426892 0 0 1 -0.31212,0.526071 l -0.1571,-0.1426368 c 0.11784,-0.1305984 0.20856,-0.2841096 0.26768,-0.4537072 z m -15.90755,0.00556 0.47025,0.700193 c -0.14102,0.09533 -0.30196,0.163539 -0.4749,0.197935 l -0.16537,-0.8392317 a 0.47517912,0.47517912 0 0 0 0.17002,-0.058896 z m -0.44752,0.014023 a 0.47517912,0.47517912 0 0 0 0.16795,0.048048 l -0.0413,0.858864 c -0.17883,-0.0082 -0.34665,-0.05416 -0.49971,-0.127106 z m 1.44126,0.038761 0.20102,0.070273 a 1.5426892,1.5426892 0 0 1 -0.31213,0.5260711 l -0.1571,-0.1426369 c 0.11794,-0.1306513 0.20906,-0.2840038 0.26821,-0.4537072 z m 12.4783,0.1126596 c 0.0838,0.1622425 0.1986,0.3035829 0.33848,0.4185708 l -0.13591,0.1653646 a 1.5426892,1.5426892 0 0 1 -0.39325,-0.4862777 z m -14.91382,0.058393 c 0.0838,0.1622425 0.1986,0.3035829 0.33849,0.4185709 l -0.13643,0.1653645 a 1.5426892,1.5426892 0 0 1 -0.39274,-0.4857485 z m 16.84084,0.439764 0.11575,0.1725874 a 1.5426892,1.5426892 0 0 1 -0.56017,0.233574 l -0.0403,-0.204126 c 0.17653,-0.03506 0.34076,-0.104722 0.48473,-0.2020354 z m -14.91434,0.058394 0.11627,0.172588 a 1.5426892,1.5426892 0 0 1 -0.56069,0.233574 l -0.0403,-0.2041 c 0.1767,-0.03506 0.34063,-0.104642 0.48472,-0.202062 z m 13.59762,0.0367 c 0.15607,0.07437 0.32725,0.121364 0.50953,0.129698 l -0.0103,0.208757 a 1.5426892,1.5426892 0 0 1 -0.59015,-0.14777 l 0.091,-0.190685 z m -14.91382,0.05839 c 0.15601,0.07435 0.32682,0.121338 0.50902,0.129699 l -0.01,0.208783 a 1.5426892,1.5426892 0 0 1 -0.59066,-0.147797 z"
       style="color:#000000;font-style:normal;font-variant:normal;font-weight:normal;font-stretch:normal;font-size:medium;line-height:normal;font-family:sans-serif;text-indent:0;text-align:start;text-decoration:none;text-decoration-line:none;text-decoration-style:solid;text-decoration-color:#000000;letter-spacing:normal;word-spacing:normal;text-transform:none;writing-mode:lr-tb;direction:ltr;baseline-shift:baseline;text-anchor:start;white-space:normal;clip-rule:nonzero;display:inline;overflow:visible;visibility:visible;opacity:1;isolation:auto;mix-blend-mode:normal;color-interpolation:sRGB;color-interpolation-filters:linearRGB;solid-color:#000000;solid-opacity:1;fill:#000000;fill-opacity:1;fill-rule:evenodd;stroke:none;stroke-width:0.06614583;stroke-linecap:butt;stroke-linejoin:miter;stroke-miterlimit:4;stroke-dasharray:none;stroke-dashoffset:0;stroke-opacity:1;color-rendering:auto;image-rendering:auto;shape-rendering:auto;text-rendering:auto;enable-background:accumulate"
       inkscape:connector-curvature="0" />
  </g>
</svg>
